<?xml version="1.0" standalone="no"?><svg xmlns="http://www.w3.org/2000/svg" viewBox="0 0 1440 320"><path fill="#cd320d" fill-opacity="80%" d="M0,288L26.7,240C53.3,192,107,96,160,96C213.3,96,267,192,320,213.3C373.3,235,427,181,480,160C533.3,139,587,149,640,176C693.3,203,747,245,800,240C853.3,235,907,181,960,181.3C1013.3,181,1067,235,1120,234.7C1173.3,235,1227,181,1280,170.7C1333.3,160,1387,192,1413,208L1440,224L1440,320L1413.3,320C1386.7,320,1333,320,1280,320C1226.7,320,1173,320,1120,320C1066.7,320,1013,320,960,320C906.7,320,853,320,800,320C746.7,320,693,320,640,320C586.7,320,533,320,480,320C426.7,320,373,320,320,320C266.7,320,213,320,160,320C106.7,320,53,320,27,320L0,320Z"></path></svg>