<?xml version="1.0" standalone="no"?><svg xmlns="http://www.w3.org/2000/svg" viewBox="0 0 1440 320"><path fill="#bd2b08" fill-opacity="1" d="M0,256L18.5,261.3C36.9,267,74,277,111,256C147.7,235,185,181,222,170.7C258.5,160,295,192,332,192C369.2,192,406,160,443,165.3C480,171,517,213,554,234.7C590.8,256,628,256,665,229.3C701.5,203,738,149,775,144C812.3,139,849,181,886,165.3C923.1,149,960,75,997,80C1033.8,85,1071,171,1108,181.3C1144.6,192,1182,128,1218,101.3C1255.4,75,1292,85,1329,96C1366.2,107,1403,117,1422,122.7L1440,128L1440,320L1421.5,320C1403.1,320,1366,320,1329,320C1292.3,320,1255,320,1218,320C1181.5,320,1145,320,1108,320C1070.8,320,1034,320,997,320C960,320,923,320,886,320C849.2,320,812,320,775,320C738.5,320,702,320,665,320C627.7,320,591,320,554,320C516.9,320,480,320,443,320C406.2,320,369,320,332,320C295.4,320,258,320,222,320C184.6,320,148,320,111,320C73.8,320,37,320,18,320L0,320Z"></path></svg>