<?xml version="1.0" standalone="no"?><svg xmlns="http://www.w3.org/2000/svg" viewBox="0 0 1440 320"><path fill="#a92607" fill-opacity="1" d="M0,128L12.6,128C25.3,128,51,128,76,144C101.1,160,126,192,152,192C176.8,192,202,160,227,149.3C252.6,139,278,149,303,149.3C328.4,149,354,139,379,117.3C404.2,96,429,64,455,74.7C480,85,505,139,531,138.7C555.8,139,581,85,606,58.7C631.6,32,657,32,682,48C707.4,64,733,96,758,96C783.2,96,808,64,834,80C858.9,96,884,160,909,165.3C934.7,171,960,117,985,106.7C1010.5,96,1036,128,1061,133.3C1086.3,139,1112,117,1137,117.3C1162.1,117,1187,139,1213,165.3C1237.9,192,1263,224,1288,234.7C1313.7,245,1339,235,1364,240C1389.5,245,1415,267,1427,277.3L1440,288L1440,320L1427.4,320C1414.7,320,1389,320,1364,320C1338.9,320,1314,320,1288,320C1263.2,320,1238,320,1213,320C1187.4,320,1162,320,1137,320C1111.6,320,1086,320,1061,320C1035.8,320,1011,320,985,320C960,320,935,320,909,320C884.2,320,859,320,834,320C808.4,320,783,320,758,320C732.6,320,707,320,682,320C656.8,320,632,320,606,320C581.1,320,556,320,531,320C505.3,320,480,320,455,320C429.5,320,404,320,379,320C353.7,320,328,320,303,320C277.9,320,253,320,227,320C202.1,320,177,320,152,320C126.3,320,101,320,76,320C50.5,320,25,320,13,320L0,320Z"></path></svg>